<?xml version="1.0" encoding="utf-8"?>
<!-- Generator: Adobe Illustrator 19.0.0, SVG Export Plug-In . SVG Version: 6.00 Build 0)  -->
<svg version="1.1" id="Layer_1" xmlns="http://www.w3.org/2000/svg" xmlns:xlink="http://www.w3.org/1999/xlink" x="0px" y="0px"
	 width="313px" height="348px" viewBox="735 101 313 348" style="enable-background:new 735 101 313 348;" xml:space="preserve">
<g>
	<path d="M884,148c4.3,0,8.7,0,13,0c2.6,0.4,5.2,0.9,7.8,1.3c35.4,5.7,68.4,39.6,67.2,81.1c-0.3,11.1,0,22.3,0,33.6
		c1.4,0.2,2.6,0.6,3.7,0.5c11.3-1,19.9,6.9,19.7,20.6c-0.6,32.4-0.2,64.9-0.2,97.4c0,12.9-2.4,16.6-14.2,21.5c-60.3,0-120.7,0-181,0
		c-8-3.1-13.8-8.3-13.9-17.4c-0.2-35-0.2-69.9,0-104.9c0.1-9.8,6.9-16.3,16.6-17.1c2.1-0.2,4.2-0.3,6.8-0.4c0-2.2,0-4,0-5.8
		c0.1-11.5,0-23,0.3-34.5c1.1-37.2,31.7-66.2,59.6-73C874.3,149.9,879.2,149,884,148z M843.1,264.6c3.4,0,5.3,0,7.3,0
		c27,0,53.9,0,80.9,0c1.2,0,2.5,0.4,3.4-0.1c1.2-0.6,2.9-1.9,2.9-2.9c-0.1-13.8,0.8-27.8-1.1-41.4c-2.7-19.8-22-36.4-40.8-37.2
		c-24.6-1.1-45,11.5-49.5,33.5C843.1,231.9,844,248.1,843.1,264.6z"/>
</g>
</svg>
